<svg xmlns="http://www.w3.org/2000/svg" xmlns:xlink="http://www.w3.org/1999/xlink" width="1366" zoomAndPan="magnify" viewBox="0 0 1024.5 576" height="768" preserveAspectRatio="xMidYMid meet" version="1.0"><defs><filter x="0%" y="0%" width="100%" height="100%" id="546ec4f943"><feColorMatrix values="0 0 0 0 1 0 0 0 0 1 0 0 0 0 1 0 0 0 1 0" color-interpolation-filters="sRGB"/></filter><clipPath id="6c0d179d8e"><path d="M 0 0.140625 L 503 0.140625 L 503 542 L 0 542 Z M 0 0.140625 " clip-rule="nonzero"/></clipPath><mask id="f6ff0d9367"><g filter="url(#546ec4f943)"><rect x="-102.45" width="1229.4" fill="#000000" y="-57.6" height="691.2" fill-opacity="0.18"/></g></mask><clipPath id="70d3d913aa"><path d="M 0 0.140625 L 502.671875 0.140625 L 502.671875 541.203125 L 0 541.203125 Z M 0 0.140625 " clip-rule="nonzero"/></clipPath><clipPath id="44eee0ed1e"><path d="M 126.324219 -20.480469 C -81.460938 -20.480469 -249.902344 105.253906 -249.902344 260.359375 C -249.902344 415.464844 -81.460938 541.203125 126.324219 541.203125 C 334.105469 541.203125 502.546875 415.464844 502.546875 260.359375 C 502.546875 105.253906 334.105469 -20.480469 126.324219 -20.480469 Z M 126.324219 -20.480469 " clip-rule="nonzero"/></clipPath><clipPath id="9c2d26e447"><rect x="0" width="503" y="0" height="542"/></clipPath><clipPath id="88625ffd17"><path d="M 0 382 L 284 382 L 284 575.859375 L 0 575.859375 Z M 0 382 " clip-rule="nonzero"/></clipPath><mask id="6df5d680fa"><g filter="url(#546ec4f943)"><rect x="-102.45" width="1229.4" fill="#000000" y="-57.6" height="691.2" fill-opacity="0.64"/></g></mask><clipPath id="c396a851cd"><path d="M 0 13 L 276 13 L 276 193.859375 L 0 193.859375 Z M 0 13 " clip-rule="nonzero"/></clipPath><clipPath id="c1e80bd742"><path d="M 283.132812 310.679688 L -303.628906 338.3125 L -318.246094 27.957031 L 268.519531 0.328125 Z M 283.132812 310.679688 " clip-rule="nonzero"/></clipPath><clipPath id="8a06575776"><path d="M -9.890625 324.480469 C 151.941406 316.859375 279.859375 241.207031 275.824219 155.503906 C 271.789062 69.800781 137.328125 6.503906 -24.503906 14.125 C -186.335938 21.746094 -314.253906 97.398438 -310.21875 183.101562 C -306.183594 268.804688 -171.71875 332.101562 -9.890625 324.480469 Z M -9.890625 324.480469 " clip-rule="nonzero"/></clipPath><clipPath id="5b8d81a233"><rect x="0" width="284" y="0" height="194"/></clipPath></defs><g clip-path="url(#6c0d179d8e)"><g mask="url(#f6ff0d9367)"><g transform="matrix(1, 0, 0, 1, 0, 0.000000000000055289)"><g clip-path="url(#9c2d26e447)"><g clip-path="url(#70d3d913aa)"><g clip-path="url(#44eee0ed1e)"><path fill="#32eff3" d="M -249.902344 -20.480469 L 502.671875 -20.480469 L 502.671875 541.203125 L -249.902344 541.203125 Z M -249.902344 -20.480469 " fill-opacity="1" fill-rule="nonzero"/></g></g></g></g></g></g><g clip-path="url(#88625ffd17)"><g mask="url(#6df5d680fa)"><g transform="matrix(1, 0, 0, 1, 0, 382)"><g clip-path="url(#5b8d81a233)"><g clip-path="url(#c396a851cd)"><g clip-path="url(#c1e80bd742)"><g clip-path="url(#8a06575776)"><path fill="#28208c" d="M 283.132812 310.679688 L -302.417969 338.253906 L -317.03125 27.902344 L 268.519531 0.328125 Z M 283.132812 310.679688 " fill-opacity="1" fill-rule="nonzero"/></g></g></g></g></g></g></g></svg>